<svg xmlns="http://www.w3.org/2000/svg" width="1050" height="1050" viewBox="0 0 1050 1050" version="1.1"><path d="M 530 77 C 530.825 77.533, 532.175 77.977, 533 77.985 C 536.389 78.022, 546.823 84.031, 551.441 88.605 C 554.881 92.012, 555.727 92.557, 554.227 90.396 C 551.269 86.136, 546.118 82.382, 538.484 78.920 C 532.208 76.074, 526.606 74.807, 530 77 M 501.208 83.930 C 498.473 86.092, 495.218 89.354, 493.974 91.180 C 492.304 93.631, 492.862 93.268, 496.106 89.793 C 498.523 87.205, 502.250 83.942, 504.390 82.543 C 506.529 81.145, 507.807 80, 507.229 80 C 506.652 80, 503.942 81.769, 501.208 83.930 M 486.956 105.149 C 485.548 110.359, 486.137 123.741, 487.897 126.519 C 489.142 128.486, 489.146 128.486, 488.494 126.500 C 487.211 122.591, 486.828 110.432, 487.850 106.027 C 489.200 100.206, 488.482 99.500, 486.956 105.149 M 561.500 114.500 C 561.500 119.790, 561.793 123.079, 562.150 121.809 C 562.508 120.539, 562.801 117.250, 562.801 114.500 C 562.801 111.750, 562.508 108.461, 562.150 107.191 C 561.793 105.921, 561.500 109.210, 561.500 114.500 M 359.750 117.068 C 357.688 118.157, 356 119.237, 356 119.468 C 356 119.872, 365.066 116.126, 365.917 115.370 C 367.228 114.205, 362.934 115.387, 359.750 117.068 M 387.932 116.587 C 398.332 121.336, 405.648 129.704, 408.399 140 C 409.207 143.025, 409.898 144.504, 409.934 143.288 C 410.047 139.483, 406.135 130.518, 402.517 126.291 C 398.765 121.908, 391.013 116.575, 387 115.617 C 385.363 115.227, 385.684 115.561, 387.932 116.587 M 685 117.604 C 688.025 118.973, 692.750 122.209, 695.499 124.796 L 700.499 129.500 695.999 124.666 C 691.737 120.087, 683.575 114.932, 680.783 115.058 C 680.077 115.089, 681.975 116.235, 685 117.604 M 644.118 125.603 C 640.241 130.008, 635.940 139.172, 636.054 142.788 C 636.083 143.729, 636.900 142.023, 637.869 138.996 C 639.890 132.685, 642.093 128.865, 646.376 124.250 C 648.035 122.463, 649.117 121, 648.781 121 C 648.445 121, 646.347 123.071, 644.118 125.603 M 557.097 132.524 C 555.808 134.953, 552.672 139.052, 550.127 141.632 C 547.371 144.428, 546.713 145.416, 548.500 144.078 C 553.359 140.438, 561.086 129.753, 559.794 128.460 C 559.599 128.266, 558.386 130.094, 557.097 132.524 M 489 129.507 C 489 131.349, 495.497 140.268, 499.029 143.275 C 503.958 147.471, 509 150.395, 509 149.057 C 509 148.475, 508.438 147.989, 507.750 147.975 C 504.956 147.920, 496.649 140.525, 492.947 134.797 C 490.776 131.438, 489 129.058, 489 129.507 M 340.630 141.250 C 339.870 144.087, 339.994 151.772, 340.850 154.809 C 341.207 156.079, 341.500 153.041, 341.500 148.059 C 341.500 143.077, 341.440 139, 341.367 139 C 341.293 139, 340.962 140.012, 340.630 141.250 M 704.500 148.096 C 704.500 153.058, 704.793 156.079, 705.150 154.809 C 706.015 151.740, 706.033 142.938, 705.180 140.787 C 704.806 139.845, 704.500 143.134, 704.500 148.096 M 535.458 151.250 C 535.195 151.938, 535.097 174.325, 535.240 201 L 535.501 249.500 536 199.750 C 536.275 172.387, 536.373 150, 536.219 150 C 536.064 150, 535.722 150.563, 535.458 151.250 M 407.895 156.998 C 407.049 160.242, 406.682 162.697, 407.078 162.452 C 407.932 161.924, 410.405 152.071, 409.828 151.495 C 409.610 151.277, 408.740 153.753, 407.895 156.998 M 640.677 165.874 C 640.947 166.906, 640.230 169.589, 639.084 171.835 C 636.188 177.512, 636.546 178.516, 639.500 173 C 642.058 168.223, 642.577 165.474, 641.093 164.558 C 640.595 164.249, 640.407 164.842, 640.677 165.874 M 345.846 166.563 C 347.497 169.888, 355.798 177.023, 360.367 179.044 C 362.687 180.070, 366.591 181.155, 369.042 181.456 C 372.914 181.929, 372.717 181.801, 367.550 180.478 C 359.716 178.473, 354.100 175.077, 348.994 169.257 C 346.699 166.641, 345.282 165.428, 345.846 166.563 M 696.683 169.475 C 692.094 174.965, 686.278 178.475, 678.450 180.478 C 673.283 181.801, 673.086 181.929, 676.958 181.456 C 683.310 180.678, 689.140 177.834, 694.491 172.902 C 698.459 169.244, 701.819 165, 700.747 165 C 700.569 165, 698.740 167.014, 696.683 169.475 M 403.234 174 C 404.973 178.721, 416.328 203.006, 416.646 202.687 C 417.065 202.268, 404.308 173.928, 403.304 173.047 C 402.962 172.746, 402.930 173.175, 403.234 174 M 661.563 186.262 C 660.283 189.157, 657.828 194.628, 656.109 198.420 C 654.389 202.213, 653.147 205.481, 653.349 205.682 C 653.550 205.884, 656.137 200.655, 659.096 194.063 C 663.037 185.283, 665.015 181.969, 666.488 181.674 C 668.242 181.324, 668.204 181.255, 666.195 181.136 C 664.326 181.026, 663.449 181.996, 661.563 186.262 M 626.132 200.111 C 625.624 201.425, 622.457 208.534, 619.096 215.908 C 615.734 223.283, 613.137 229.470, 613.324 229.658 C 613.512 229.845, 616.888 222.946, 620.826 214.326 C 624.764 205.706, 627.777 198.444, 627.521 198.188 C 627.265 197.932, 626.640 198.798, 626.132 200.111 M 391.381 212.250 C 394.987 220.573, 397.133 225, 397.560 225 C 397.817 225, 397.393 223.537, 396.619 221.750 C 393.013 213.427, 390.867 209, 390.440 209 C 390.183 209, 390.607 210.463, 391.381 212.250 M 431.381 236.250 C 434.987 244.573, 437.133 249, 437.560 249 C 437.817 249, 437.393 247.537, 436.619 245.750 C 433.013 237.427, 430.867 233, 430.440 233 C 430.183 233, 430.607 234.463, 431.381 236.250 M 636.573 241.621 C 635.158 244.712, 634.010 247.750, 634.022 248.371 C 634.042 249.421, 637.052 243.384, 639.067 238.250 C 640.819 233.787, 639.090 236.125, 636.573 241.621 M 352.195 250.581 C 348.727 251.341, 345.127 252.455, 344.195 253.057 C 342.713 254.013, 342.751 254.070, 344.500 253.506 C 346.449 252.878, 357.992 250.489, 363 249.677 C 364.740 249.396, 364.436 249.261, 362 249.237 C 360.075 249.217, 355.663 249.822, 352.195 250.581 M 696.573 251.880 C 712.481 256.243, 725.167 263.969, 736.551 276.229 C 740.264 280.228, 742.381 282.150, 741.255 280.500 C 737.940 275.643, 726.882 265.527, 720.090 261.136 C 712.815 256.435, 700.176 251.309, 693.857 250.499 C 690.692 250.093, 691.435 250.471, 696.573 251.880 M 324.878 262.877 C 317.206 267.947, 310.256 274.645, 305.554 281.500 L 302.811 285.500 305.655 282.007 C 312.449 273.667, 317.860 268.570, 324.935 263.849 C 333.020 258.454, 333.630 258, 332.795 258 C 332.499 258, 328.936 260.194, 324.878 262.877 M 299.604 290.250 C 297.070 294.592, 294.723 300.089, 295.222 300.513 C 295.375 300.643, 297.160 297.431, 299.190 293.375 C 303.257 285.245, 303.472 283.623, 299.604 290.250 M 751.653 300 C 752.001 301.375, 752.903 304.075, 753.658 306 C 754.832 308.995, 754.948 309.083, 754.461 306.610 C 754.148 305.021, 753.246 302.321, 752.456 300.610 C 751.376 298.271, 751.177 298.120, 751.653 300 M 292.568 307.083 C 291.706 309.987, 291.032 313.069, 291.071 313.932 C 291.110 314.794, 291.977 312.579, 292.996 309.008 C 294.016 305.438, 294.689 302.356, 294.493 302.160 C 294.297 301.963, 293.430 304.179, 292.568 307.083 M 756.786 416.881 L 757.071 520 523.540 520 L 290.010 520 289.748 422 L 289.485 324 289.493 422.250 L 289.500 520.500 523.500 520.500 L 757.500 520.500 757.755 421.641 C 757.895 367.268, 757.670 320.753, 757.255 318.272 C 756.840 315.792, 756.628 360.166, 756.786 416.881 M 216 335.676 C 229.392 336.400, 242.776 336.438, 242.348 335.750 C 242.092 335.337, 234.821 335.085, 226.191 335.189 C 217.561 335.293, 212.975 335.512, 216 335.676 M 410 336.005 C 408.500 336.488, 410.100 336.592, 414 336.265 C 417.575 335.965, 420.688 335.558, 420.917 335.360 C 421.724 334.663, 412.469 335.209, 410 336.005 M 805.460 336.250 C 805.197 336.938, 805.099 367.425, 805.241 404 L 805.500 470.500 826.026 470.500 L 846.551 470.500 853.074 467.287 C 862.848 462.472, 872.120 452.364, 874.437 444 C 874.818 442.625, 873.729 444.200, 872.018 447.500 C 867.855 455.528, 860.900 462.412, 853.025 466.302 L 846.550 469.500 826.261 469.839 L 805.972 470.178 806.236 402.589 C 806.381 365.415, 806.373 335, 806.219 335 C 806.064 335, 805.722 335.563, 805.460 336.250 M 816.296 335.744 C 820.583 335.932, 827.333 335.931, 831.296 335.742 C 835.258 335.552, 831.750 335.399, 823.500 335.400 C 815.250 335.401, 812.008 335.556, 816.296 335.744 M 602.360 338.413 C 591.426 343.504, 584.619 353.320, 583.538 365.554 L 583.013 371.500 584.374 364.470 C 587.162 350.070, 594.464 341.521, 607.500 337.399 C 609.700 336.703, 610.600 336.108, 609.500 336.077 C 608.400 336.045, 605.187 337.096, 602.360 338.413 M 624.676 337.439 C 633.296 340.135, 640.506 346.372, 644.555 354.637 C 645.865 357.311, 646.952 358.915, 646.969 358.200 C 647.017 356.185, 644.093 350.922, 640.370 346.326 C 636.847 341.974, 626.397 335.945, 622.590 336.067 C 621.405 336.105, 622.308 336.699, 624.676 337.439 M 194.410 339.955 C 191.159 341.580, 186.475 345.051, 184 347.668 L 179.500 352.427 184.593 347.820 C 189.814 343.098, 193.595 340.787, 199.906 338.464 C 201.883 337.736, 202.784 337.109, 201.910 337.070 C 201.035 337.032, 197.660 338.330, 194.410 339.955 M 401.485 339.102 C 399.293 340.259, 396.202 342.396, 394.616 343.852 C 391.090 347.089, 386 354.825, 386.001 356.946 C 386.001 357.801, 386.924 356.636, 388.052 354.357 C 391.086 348.229, 395.811 343.370, 402 340.017 C 405.025 338.377, 407.043 337.028, 406.485 337.018 C 405.927 337.008, 403.677 337.946, 401.485 339.102 M 429.637 338.922 C 438.775 343.072, 446.294 352.908, 447.991 362.932 C 448.708 367.167, 448.773 367.245, 448.873 364 C 449.021 359.181, 444.725 350.367, 439.693 345.167 C 435.580 340.917, 429.340 336.979, 426.790 337.022 C 426.080 337.034, 427.362 337.889, 429.637 338.922 M 384.630 361.250 C 382.589 368.868, 385.300 380.210, 390.953 387.706 C 394.450 392.342, 403.853 399, 406.902 399 C 407.722 399, 406.111 397.863, 403.322 396.473 C 396.481 393.064, 391.255 387.771, 388.111 381.067 C 385.951 376.461, 385.503 374.075, 385.515 367.250 C 385.523 362.712, 385.463 359, 385.382 359 C 385.300 359, 384.962 360.012, 384.630 361.250 M 173.660 363.445 C 173.336 364.287, 172.839 367.344, 172.553 370.238 C 172.050 375.347, 172.074 375.311, 173.406 369 C 174.742 362.670, 174.848 360.348, 173.660 363.445 M 875.500 403.500 C 875.500 424.190, 875.793 440.079, 876.150 438.809 C 876.508 437.539, 876.801 421.650, 876.801 403.500 C 876.801 385.350, 876.508 369.461, 876.150 368.191 C 875.793 366.921, 875.500 382.810, 875.500 403.500 M 447.765 373.253 C 446.898 378.916, 444.117 384.659, 439.931 389.425 C 436.551 393.275, 426.131 398.935, 422.090 399.116 C 420.372 399.193, 420.094 399.387, 421.263 399.692 C 424.747 400.600, 432.971 396.879, 438.356 391.957 C 444.482 386.359, 449.322 376.995, 448.808 371.736 C 448.527 368.854, 448.413 369.019, 447.765 373.253 M 647.115 373 C 646.931 376.938, 641.577 387.184, 637.872 390.689 C 634.075 394.280, 624.783 398.916, 621 399.106 C 619.273 399.193, 619.046 399.374, 620.263 399.692 C 624.366 400.762, 632.414 396.764, 638.589 390.589 C 644.764 384.414, 648.762 376.366, 647.692 372.263 C 647.376 371.051, 647.196 371.281, 647.115 373 M 584.110 374 C 583.970 377.871, 588.399 386.399, 592.873 390.873 C 597.813 395.813, 603.397 398.769, 609.158 399.492 C 613.342 400.018, 613.303 399.982, 608.081 398.496 C 601.292 396.565, 597.171 394.038, 592.653 389.038 C 588.481 384.420, 586.316 380.480, 585.092 375.282 C 584.427 372.461, 584.178 372.135, 584.110 374 M 172.495 435.827 C 172.874 440.528, 177.055 452, 178.389 452 C 178.664 452, 177.799 449.618, 176.466 446.707 C 175.134 443.796, 173.598 438.959, 173.055 435.957 L 172.066 430.500 172.495 435.827 M 452.457 454.500 L 452.500 469.500 521.750 469.757 L 591 470.014 590.779 454.757 L 590.558 439.500 590.252 454.250 L 589.947 469 521.500 469 L 453.053 469 452.734 454.250 L 452.414 439.500 452.457 454.500 M 180.792 455.681 C 184.177 460.476, 194.719 468.127, 197.700 467.953 C 198.140 467.928, 196.389 466.807, 193.808 465.464 C 191.227 464.120, 186.737 460.653, 183.831 457.760 C 180.393 454.339, 179.331 453.612, 180.792 455.681 M 200.500 469.174 C 201.985 470.158, 207.782 470.524, 223 470.595 L 243.500 470.689 223 470.048 C 211.725 469.696, 201.600 469.057, 200.500 468.628 L 198.500 467.849 200.500 469.174 M 179.908 536.890 C 173.885 539.247, 167.453 543.780, 162.503 549.158 L 158.507 553.500 163.503 548.904 C 170.460 542.506, 174.375 539.984, 181.415 537.366 C 184.762 536.122, 186.825 535.102, 186 535.099 C 185.175 535.096, 182.433 535.902, 179.908 536.890 M 835.524 536.596 C 833.337 537.397, 831.125 538.475, 830.607 538.993 C 830.089 539.511, 831.878 539.110, 834.582 538.101 C 837.287 537.092, 840.175 536.017, 841 535.712 C 842.333 535.219, 842.333 535.157, 841 535.149 C 840.175 535.145, 837.711 535.796, 835.524 536.596 M 868.055 536.450 C 880.356 540.983, 890.402 549.534, 896.305 560.500 C 897.193 562.150, 897.938 563.026, 897.960 562.446 C 898.039 560.368, 891.835 551.729, 886.789 546.891 C 881.740 542.050, 869.291 534.932, 866.116 535.070 C 865.227 535.109, 866.100 535.730, 868.055 536.450 M 219.500 539.444 C 225.842 542.535, 231.600 547.373, 238.011 555 C 239.970 557.331, 240.038 557.346, 239.006 555.221 C 236.050 549.137, 218.792 535.956, 213.860 536.017 C 213.112 536.026, 215.650 537.568, 219.500 539.444 M 824.400 542.876 C 822.255 544.458, 818.925 547.484, 817 549.601 C 814.295 552.576, 814.749 552.319, 819 548.467 C 822.025 545.725, 825.625 542.723, 827 541.794 C 828.375 540.865, 829.230 540.081, 828.900 540.052 C 828.570 540.024, 826.545 541.294, 824.400 542.876 M 157.243 555.250 C 155.786 557.069, 151.805 565.138, 152.180 565.512 C 152.356 565.687, 153.951 563.168, 155.723 559.915 C 158.829 554.215, 159.348 552.623, 157.243 555.250 M 812.247 555.250 C 810.774 557.097, 807.801 563.134, 808.179 563.513 C 808.359 563.692, 809.742 561.625, 811.253 558.920 C 813.906 554.167, 814.315 552.659, 812.247 555.250 M 243.588 565.500 C 243.928 566.600, 244.832 570.650, 245.596 574.500 L 246.987 581.500 246.480 575.710 C 246.201 572.526, 245.298 568.476, 244.472 566.710 C 243.646 564.945, 243.249 564.400, 243.588 565.500 M 898.117 564 C 898.091 564.275, 898.958 567.425, 900.043 571 C 901.377 575.395, 901.824 576.215, 901.422 573.531 C 900.917 570.164, 898.257 562.491, 898.117 564 M 150.158 570.866 C 148.759 575.535, 148.598 579.331, 149.897 577 C 150.780 575.414, 152.273 567, 151.670 567 C 151.476 567, 150.795 568.740, 150.158 570.866 M 804.625 574.125 C 803.795 578.274, 804.013 806.839, 804.850 809.809 C 805.207 811.079, 805.500 757.866, 805.500 691.559 C 805.500 625.252, 805.444 571, 805.375 571 C 805.306 571, 804.969 572.406, 804.625 574.125 M 691 700 L 691 825 721 825 L 751 825 751 700 L 751 575 721 575 L 691 575 691 700 M 301.246 576.812 C 300.250 577.456, 300.044 603.177, 300.246 702.061 L 300.500 826.500 330.500 826.500 L 360.500 826.500 360.754 702.061 C 360.952 604.830, 360.740 577.458, 359.785 576.867 C 358.128 575.843, 302.826 575.791, 301.246 576.812 M 503.500 594.589 C 467.558 600.921, 435.203 625.315, 418.729 658.500 C 409.585 676.921, 406.525 690.207, 406.524 711.500 C 406.523 724.849, 406.914 729.145, 408.884 737.429 C 414.655 761.694, 425.439 780.545, 443.425 797.813 C 483.127 835.928, 544.847 841.155, 591.217 810.329 C 599.959 804.518, 613.457 791.827, 619.629 783.616 C 647.079 747.099, 651.552 699.139, 631.298 658.500 C 614.255 624.305, 580.105 599.350, 543.004 593.981 C 533.644 592.626, 512.820 592.947, 503.500 594.589 M 149.106 807 C 149.132 808.375, 149.770 811.075, 150.526 813 L 151.900 816.500 151.316 812 C 150.626 806.679, 149.035 803.079, 149.106 807 M 899.867 811.551 C 898.973 815.373, 898.385 818.661, 898.561 818.857 C 899.159 819.524, 902.147 808.001, 901.819 806.296 C 901.639 805.365, 900.761 807.730, 899.867 811.551 M 806.024 814.090 C 806.011 814.965, 807.432 818.565, 809.181 822.090 C 814.914 833.640, 829.024 845.460, 839.500 847.488 C 841.150 847.808, 839.795 847.024, 836.489 845.747 C 823.312 840.657, 813.777 831.290, 808.354 818.108 C 807.086 815.023, 806.037 813.216, 806.024 814.090 M 152.048 817.360 C 152.022 817.833, 153.420 820.885, 155.156 824.141 C 160.647 834.444, 174.644 845.580, 184.500 847.488 C 186.150 847.808, 184.795 847.024, 181.489 845.747 C 169.971 841.298, 160.589 832.904, 154.944 822 C 153.378 818.975, 152.075 816.887, 152.048 817.360 M 236.609 829.447 C 230.515 837.435, 225.802 840.767, 212 846.846 C 209.592 847.906, 209.611 847.925, 212.500 847.346 C 220.254 845.793, 232.048 837.365, 237.823 829.250 C 240.905 824.920, 239.942 825.076, 236.609 829.447 M 891.394 829.728 C 885.871 836.969, 879.377 841.834, 870.191 845.612 C 867.061 846.899, 865.227 847.963, 866.116 847.976 C 867.004 847.989, 870.984 846.373, 874.961 844.383 C 881.867 840.928, 891.524 832.626, 893.985 828.029 C 895.673 824.873, 894.520 825.630, 891.394 829.728 M 375.431 903.500 C 375.432 916.700, 375.574 921.962, 375.747 915.193 C 375.921 908.424, 375.920 897.624, 375.746 891.193 C 375.572 884.762, 375.431 890.300, 375.431 903.500 M 670.431 903.500 C 670.432 916.700, 670.574 921.962, 670.747 915.193 C 670.921 908.424, 670.920 897.624, 670.746 891.193 C 670.572 884.762, 670.431 890.300, 670.431 903.500 M 349.703 928.442 C 342.845 930.889, 333.560 938.271, 330.765 943.500 C 330.178 944.600, 331.809 943.162, 334.392 940.305 C 339.984 934.117, 344.213 931.357, 351.836 928.919 C 354.951 927.923, 356.600 927.103, 355.500 927.098 C 354.400 927.092, 351.791 927.697, 349.703 928.442 M 693.224 928.401 C 700.239 930.448, 706.264 934.348, 711.521 940.243 C 714.099 943.134, 715.738 944.567, 715.164 943.427 C 711.847 936.844, 700.179 928.712, 692.445 927.593 C 688.707 927.052, 688.748 927.094, 693.224 928.401 M 484.237 929.428 C 492.324 932.584, 499.076 938.628, 503.307 946.500 C 504.194 948.150, 504.936 949.050, 504.956 948.500 C 505.010 947.010, 501.162 940.889, 498.172 937.709 C 494.607 933.919, 487.156 929.270, 483.500 928.556 C 480.973 928.062, 481.090 928.200, 484.237 929.428 M 550.585 935.191 C 546.799 938.311, 540.991 946.352, 541.009 948.446 C 541.015 949.026, 542.341 947.194, 543.958 944.376 C 545.574 941.558, 548.832 937.629, 551.198 935.645 C 553.564 933.662, 555.265 932.030, 554.978 932.020 C 554.691 932.009, 552.714 933.436, 550.585 935.191 M 539.053 953.750 C 538.480 955.813, 538.082 961.550, 538.168 966.500 L 538.325 975.500 539.014 964.500 C 539.394 958.450, 540.044 952.712, 540.459 951.750 C 540.874 950.788, 540.962 950, 540.654 950 C 540.346 950, 539.625 951.688, 539.053 953.750 M 506.753 962.642 C 507.232 975.955, 507.758 977.619, 507.814 966 C 507.839 960.775, 507.531 955.664, 507.129 954.642 C 506.727 953.620, 506.558 957.220, 506.753 962.642" stroke="none" fill="#658ea2" fill-rule="evenodd"/><path d="M 519 77 C 518.175 77.533, 516.600 77.981, 515.500 77.994 C 508.061 78.088, 494.757 89.007, 490.194 98.764 C 487.846 103.783, 487.510 105.750, 487.505 114.500 C 487.501 123.547, 487.780 125.071, 490.440 130.487 C 493.724 137.176, 500.850 144.881, 505.764 147.056 L 509 148.488 509 198.757 L 509 249.025 472.951 248.762 L 436.901 248.500 424.885 222 C 405.943 180.228, 402 171.283, 402 170.081 C 402 169.463, 403.100 167.279, 404.444 165.229 C 405.788 163.178, 407.647 158.443, 408.576 154.706 C 410.153 148.364, 410.155 147.465, 408.612 141.211 C 404.555 124.772, 391.487 114.415, 375 114.571 C 368.817 114.630, 366.359 115.178, 361 117.695 C 353.335 121.294, 346.991 127.510, 343.847 134.500 C 341.201 140.383, 340.684 153.120, 342.842 159.264 C 344.717 164.602, 351.372 172.646, 356.717 176.036 C 361.009 178.757, 374.082 182.488, 376.952 181.810 C 378.368 181.475, 380.553 185.995, 400.734 231 C 404.310 238.975, 407.633 245.927, 408.118 246.450 C 408.603 246.972, 409 247.760, 409 248.200 C 409 248.640, 399.629 249, 388.176 249 C 373.593 249, 364.528 249.483, 357.926 250.611 C 325.965 256.075, 302.433 277.179, 292.819 309 L 290.553 316.500 290.241 418.250 L 289.928 520 523.500 520 L 757.071 520 756.786 417.250 L 756.500 314.500 753.759 306.415 C 745.478 281.995, 728.549 263.756, 706.142 255.115 C 693.399 250.201, 683.821 249, 657.369 249 C 643.189 249, 634 248.624, 634 248.045 C 634 247.520, 635.346 244.257, 636.991 240.795 C 638.636 237.333, 645.332 222.575, 651.871 208 L 663.761 181.500 667.131 181.734 C 672.680 182.118, 684.425 179.117, 689.187 176.096 C 694.209 172.911, 699.733 166.464, 702.549 160.500 C 705.377 154.510, 705.180 141.162, 702.166 134.500 C 699.002 127.506, 692.656 121.291, 685 117.688 C 679.531 115.115, 677.310 114.633, 671 114.651 C 653.974 114.701, 642.079 123.956, 637.397 140.795 C 635.455 147.782, 636.343 154.946, 640.120 162.748 L 642.228 167.102 637.106 178.301 C 634.289 184.460, 625.967 202.775, 618.613 219 L 605.241 248.500 570.120 248.763 L 535 249.026 535 200.027 L 535 151.029 540.750 148.103 C 548.369 144.226, 554.337 138.092, 558.277 130.088 C 561.188 124.177, 561.500 122.667, 561.495 114.521 C 561.491 106.526, 561.140 104.759, 558.409 98.987 C 555.019 91.823, 548.642 84.897, 542.579 81.792 C 533.047 76.912, 522.464 74.761, 519 77 M 407.624 336.637 C 393.221 341.060, 383.891 353.691, 384.088 368.500 C 384.267 381.933, 394.468 395.535, 406.965 399.007 C 412.322 400.495, 423.076 400.193, 428.316 398.408 C 430.886 397.532, 435.309 394.730, 438.144 392.180 C 452.212 379.532, 452.895 358.805, 439.693 345.170 C 434.852 340.170, 431.486 338.218, 424.500 336.356 C 418.179 334.672, 413.784 334.745, 407.624 336.637 M 608.734 336.030 C 598.652 338.562, 590.563 345.166, 586.434 354.238 C 580.787 366.644, 583.370 381.370, 592.856 390.856 C 599.085 397.085, 604.171 399.272, 613.633 399.792 C 625.300 400.433, 630.757 398.420, 638.589 390.589 C 646.418 382.760, 648.431 377.302, 647.795 365.633 C 647.313 356.795, 645.921 353.179, 640.349 346.300 C 633.840 338.263, 619.017 333.447, 608.734 336.030 M 203.251 337.534 C 187.137 341.908, 176.578 353.248, 173.464 369.522 C 171.711 378.685, 171.421 424.773, 173.052 435 C 175.327 449.270, 183.523 460.488, 196 466.413 L 202.500 469.500 222.757 469.824 L 243.014 470.148 242.757 403.324 L 242.500 336.500 225.500 336.304 C 213.369 336.164, 206.996 336.517, 203.251 337.534 M 806 403.089 L 806 470.178 826.250 469.839 C 845.803 469.512, 846.698 469.407, 852.253 466.804 C 860.243 463.059, 868.028 455.389, 872.127 447.222 L 875.500 440.500 875.500 403.500 L 875.500 366.500 872.411 359.982 C 866.941 348.439, 856.360 339.936, 843.888 337.061 C 841.475 336.504, 831.962 336.038, 822.750 336.024 L 806 336 806 403.089 M 452.223 454.750 L 452.500 469.500 521.750 469.757 L 591 470.014 591 455.007 L 591 440 521.473 440 L 451.947 440 452.223 454.750 M 191 534.626 C 175.761 537.570, 163.297 546.280, 156.224 558.927 C 149.211 571.467, 149.537 564.978, 149.565 691.500 C 149.585 780.739, 149.869 806.680, 150.874 810.935 C 153.630 822.601, 162.020 834.596, 171.828 840.890 C 180.073 846.180, 187.340 848.260, 198 848.377 C 206.144 848.468, 208.499 848.091, 214.500 845.739 C 230.237 839.570, 239.466 829.551, 245.120 812.500 C 247.158 806.353, 247.651 587.155, 245.653 575.577 C 242.535 557.508, 232.571 544.765, 216.243 537.960 C 209.037 534.957, 197.307 533.408, 191 534.626 M 842 535.591 C 823.568 540.484, 809.225 555.340, 805.992 572.886 C 804.635 580.257, 804.647 802.833, 806.005 810.114 C 808.164 821.678, 816.815 834.464, 826.828 840.890 C 833.046 844.880, 841.601 847.803, 849.358 848.588 C 868.270 850.502, 889.253 838.264, 896.955 820.830 C 902.140 809.092, 902.061 811.262, 901.770 688.500 L 901.500 574.500 899.274 567.958 C 891.036 543.745, 865.547 529.341, 842 535.591 M 376 903.379 L 376 926.779 365.250 927.223 C 350.702 927.824, 344.592 930.202, 336.500 938.412 C 328.881 946.142, 326.942 951.128, 326.255 964.750 L 325.738 975 416.495 975 L 507.252 975 506.800 963.750 C 506.314 951.639, 504.982 947.628, 498.864 939.852 C 493.124 932.557, 480.778 927, 470.308 927 L 466.037 927 465.768 903.750 L 465.500 880.500 420.750 880.240 L 376 879.979 376 903.379 M 580.667 880.667 C 580.300 881.033, 580 891.543, 580 904.022 L 580 926.710 573.249 927.276 C 558.808 928.487, 547.803 935.687, 542.340 947.500 C 539.981 952.600, 539.505 955.112, 539.172 964.250 L 538.779 975 629.520 975 L 720.262 975 719.763 964.750 C 719.171 952.598, 717.227 947.002, 711.147 939.943 C 703.321 930.857, 693.738 927.032, 678.750 927.012 L 670 927 670 903.500 L 670 880 625.667 880 C 601.283 880, 581.033 880.300, 580.667 880.667" stroke="none" fill="#213443" fill-rule="evenodd"/><path d="M 491 1.114 C 259.720 16.409, 65.539 181.472, 13.515 407 C -31.693 602.980, 39.333 808.050, 196 933.883 C 281.481 1002.540, 383.099 1041.853, 493.483 1048.970 C 541.635 1052.074, 594.588 1047.652, 643 1036.485 C 838.334 991.426, 991.426 838.334, 1036.485 643 C 1042.600 616.493, 1047.477 583.140, 1048.664 559.713 C 1049.020 552.680, 1049.692 546.691, 1050.156 546.404 C 1050.620 546.117, 1051 535.982, 1051 523.882 C 1051 511.782, 1050.619 502.118, 1050.152 502.406 C 1049.686 502.694, 1049.015 497.208, 1048.660 490.215 C 1047.477 466.859, 1042.592 433.475, 1036.485 407 C 991.426 211.666, 838.334 58.574, 643 13.515 C 594.481 2.323, 539.970 -2.124, 491 1.114 M 510.024 78.843 C 501.843 82.190, 493.491 90.161, 489.425 98.500 C 486.787 103.912, 486.500 105.480, 486.500 114.500 C 486.500 123.361, 486.810 125.131, 489.222 130.037 C 492.782 137.280, 497.759 142.995, 503.984 146.990 L 509.019 150.221 508.759 199.360 L 508.500 248.500 473.269 248.763 L 438.038 249.026 436.650 245.763 C 435.886 243.968, 434.097 240.025, 432.672 237 C 424.123 218.843, 403 171.319, 403 170.243 C 403 169.537, 404.083 167.245, 405.407 165.148 C 413.260 152.708, 411.167 135.020, 400.596 124.482 C 392.508 116.419, 387.588 114.500, 375 114.500 C 365.237 114.500, 364.125 114.708, 359.161 117.458 C 351.463 121.722, 344.665 129.574, 342.102 137.163 C 339.590 144.603, 339.454 149.798, 341.584 156.972 C 345.759 171.031, 357.372 180.618, 371.612 181.761 L 377.846 182.261 385.096 198.381 C 389.084 207.246, 394.231 218.550, 396.533 223.500 C 403.023 237.453, 407 246.731, 407 247.918 C 407 248.663, 399.706 249, 383.549 249 C 353.239 249, 345.791 250.504, 329.566 259.904 C 308.595 272.053, 294.286 293.261, 290.445 317.886 C 289.173 326.037, 288.987 342.186, 289.222 424 L 289.500 520.500 523.500 520.500 L 757.500 520.500 757.500 418.500 L 757.500 316.500 755.240 308.701 C 747.971 283.621, 729.529 263.120, 706.144 254.123 C 694.490 249.639, 688.839 249, 660.816 249 C 646.617 249, 635 248.608, 635 248.128 C 635 247.649, 639.966 236.286, 646.035 222.878 C 652.104 209.470, 658.713 194.840, 660.721 190.366 L 664.372 182.231 672.436 181.792 C 681.907 181.276, 687.813 178.971, 694.014 173.368 C 701.447 166.653, 706 156.831, 706 147.513 C 706 136.308, 697.418 122.899, 686.592 117.187 C 682.002 114.765, 680.464 114.500, 671 114.500 C 661.883 114.500, 659.841 114.823, 655.500 116.951 C 648.060 120.597, 640.753 128.380, 638.057 135.531 C 635.090 143.398, 635.512 155.123, 639.016 162.191 L 641.341 166.881 635.772 179.191 C 632.710 185.961, 628.560 195.100, 626.552 199.500 C 624.543 203.900, 618.735 216.725, 613.645 228 L 604.390 248.500 570.195 248.763 L 536 249.026 536 200.130 L 536 151.235 541.489 148.549 C 553.973 142.441, 563 128.113, 563 114.408 C 563 108.616, 559.863 99.020, 556.003 93.005 C 552.031 86.815, 547.061 82.809, 538.585 78.966 C 529.751 74.960, 519.620 74.917, 510.024 78.843 M 206 336.114 C 193.272 338.206, 181.413 347.344, 175.322 359.752 L 172.500 365.500 172.500 403.020 L 172.500 440.540 175.920 447.487 C 180.304 456.394, 187.192 463.273, 195.778 467.317 L 202.500 470.484 222.757 470.816 L 243.014 471.148 242.757 403.324 L 242.500 335.500 227 335.355 C 218.475 335.275, 209.025 335.616, 206 336.114 M 805.455 336.261 C 805.195 336.942, 805.099 367.425, 805.241 404 L 805.500 470.500 826.026 470.500 L 846.551 470.500 853.074 467.287 C 864.166 461.822, 872.059 452.484, 875.453 440.810 C 876.867 435.944, 877.057 430.380, 876.798 401.323 C 876.510 368.957, 876.400 367.263, 874.256 362 C 869.686 350.785, 859.774 341.316, 848.523 337.416 C 842.068 335.178, 806.236 334.217, 805.455 336.261 M 409.438 336.879 C 404.198 338.234, 395.921 343.273, 392.868 346.966 C 387.386 353.599, 385.552 358.729, 385.525 367.500 C 385.504 374.069, 385.967 376.496, 388.111 381.067 C 397.143 400.326, 421.353 405.439, 437.770 391.554 C 445.040 385.406, 449.497 373.031, 447.955 363.276 C 446.285 352.717, 438.883 343.048, 429.184 338.757 C 424.221 336.562, 414.309 335.619, 409.438 336.879 M 607.500 337.338 C 601.361 339.373, 597.859 341.452, 593.611 345.584 C 584.381 354.561, 581.699 369.734, 587.314 381.208 C 599.261 405.629, 633.433 405.282, 644.617 380.626 C 650.262 368.180, 647.445 354.274, 637.404 345.018 C 634.900 342.710, 630.775 339.903, 628.237 338.781 C 622.513 336.249, 612.822 335.575, 607.500 337.338 M 453 454.500 L 453 469 521.500 469 L 590 469 590 454.500 L 590 440 521.500 440 L 453 440 453 454.500 M 0.428 525 C 0.428 537.375, 0.571 542.438, 0.747 536.250 C 0.922 530.063, 0.922 519.938, 0.747 513.750 C 0.571 507.563, 0.428 512.625, 0.428 525 M 190.500 534.073 C 178.904 536.019, 170.061 540.870, 161.965 549.728 C 156.490 555.720, 153.802 560.357, 150.877 568.858 C 149.083 574.072, 149 579.484, 149 691.500 C 149 805.302, 149.057 808.852, 150.961 814.386 C 154.163 823.694, 158.021 829.790, 164.609 835.953 C 172.222 843.074, 179.240 846.620, 189.874 848.715 C 197.405 850.198, 198.624 850.190, 206.712 848.601 C 224.252 845.155, 237.091 834.633, 244.220 817.864 L 246.500 812.500 246.775 694.500 C 246.961 614.558, 246.709 574.908, 245.995 571.562 C 243.282 558.855, 233.115 545.529, 221.377 539.291 C 215.757 536.305, 202.635 532.870, 197.792 533.117 C 196.531 533.181, 193.250 533.611, 190.500 534.073 M 843.063 534.555 C 824.795 538.516, 810.392 552.583, 805.398 571.339 C 804.271 575.573, 804.022 597.158, 804.012 691.522 C 804.001 800.505, 804.097 806.895, 805.855 813.234 C 808.301 822.055, 813.198 829.997, 820.202 836.507 C 827.136 842.950, 834.124 846.498, 844.024 848.602 C 850.377 849.951, 852.754 850.008, 859.853 848.976 C 878.764 846.228, 893.186 834.280, 899.657 816 L 901.958 809.500 901.979 691.718 C 902 575.150, 901.979 573.873, 899.925 567.718 C 897.052 559.110, 893.764 553.794, 887.498 547.628 C 880.550 540.790, 871.972 536.281, 862.443 534.458 C 853.370 532.722, 851.473 532.731, 843.063 534.555 M 691 700 L 691 825 721 825 L 751 825 751 700 L 751 575 721 575 L 691 575 691 700 M 301.246 576.812 C 300.250 577.456, 300.044 603.177, 300.246 702.061 L 300.500 826.500 330.500 826.500 L 360.500 826.500 360.754 702.061 C 360.952 604.830, 360.740 577.458, 359.785 576.867 C 358.128 575.843, 302.826 575.791, 301.246 576.812 M 503.500 594.589 C 467.558 600.921, 435.203 625.315, 418.729 658.500 C 409.585 676.921, 406.525 690.207, 406.524 711.500 C 406.523 724.849, 406.914 729.145, 408.884 737.429 C 414.655 761.694, 425.439 780.545, 443.425 797.813 C 483.127 835.928, 544.847 841.155, 591.217 810.329 C 599.959 804.518, 613.457 791.827, 619.629 783.616 C 647.079 747.099, 651.552 699.139, 631.298 658.500 C 614.255 624.305, 580.105 599.350, 543.004 593.981 C 533.644 592.626, 512.820 592.947, 503.500 594.589 M 375 903.397 L 375 926.794 362.750 927.161 C 351.519 927.497, 350.070 927.764, 345.332 930.378 C 338.608 934.087, 332.413 940.277, 329.309 946.387 C 326.902 951.126, 326.418 954.014, 325.642 968.250 L 325.273 975 416.728 975 L 508.182 975 507.786 964.750 C 507.272 951.441, 504.703 944.566, 497.596 937.482 C 490.625 930.532, 484.700 927.854, 474.636 927.105 L 466.500 926.500 466.232 903.250 L 465.963 880 420.482 880 L 375 880 375 903.397 M 579.768 903.250 L 579.500 926.500 571.364 927.105 C 557.587 928.131, 547.629 934.772, 541.808 946.819 C 538.919 952.798, 538.538 954.629, 538.179 964.250 L 537.779 975 628.995 975 L 720.211 975 719.813 963.250 C 719.465 952.975, 719.086 950.867, 716.794 946.454 C 713.452 940.019, 706.986 933.552, 700.546 930.202 C 696.082 927.880, 694.087 927.532, 683.250 927.186 L 671 926.794 671 903.397 L 671 880 625.518 880 L 580.037 880 579.768 903.250" stroke="none" fill="#ffffff" fill-rule="evenodd"/></svg>